<svg width="28" height="34" viewBox="0 0 28 34" fill="none" xmlns="http://www.w3.org/2000/svg">
<path d="M13.2971 1.54066V3.48811C12.8471 3.50465 12.3971 3.54356 11.9487 3.60498C10.9691 3.73915 10.4003 4.68949 10.5889 5.59717C10.7889 6.56037 11.7239 7.11413 12.6302 7.01182C12.8522 6.98675 13.0746 6.96888 13.2971 6.95817V9.49238C13.2971 10.4168 12.1795 10.8797 11.5259 10.2261L6.81631 5.51652L11.5258 0.806983C12.1795 0.153343 13.2971 0.616278 13.2971 1.54066ZM14.2971 4.48885C15.9003 4.55248 17.4892 4.92188 18.9848 5.58978C21.5245 6.72384 23.673 8.66402 25.1302 11.1474C26.5876 13.6312 27.2803 16.5337 27.1101 19.4542C26.9398 22.3746 25.9152 25.1644 24.1815 27.4392C22.4479 29.7136 20.092 31.3599 17.4413 32.1562C14.791 32.9524 11.9725 32.861 9.37288 31.8943C6.77287 30.9273 4.51633 29.1307 2.91785 26.7473C1.52585 24.6718 0.693561 22.2414 0.501708 19.7157C0.476784 19.3876 0.747228 19.086 1.12755 19.086C1.48651 19.086 1.81367 19.3844 1.85157 19.7986C2.05104 21.9788 2.78604 24.0761 3.99504 25.8788C5.42694 28.0138 7.45437 29.6318 9.80102 30.5045C12.1481 31.3774 14.6951 31.4602 17.0892 30.7409C19.4829 30.0218 21.6016 28.5378 23.1556 26.4988C24.7095 24.4601 25.6235 21.966 25.7754 19.3608C25.9273 16.7557 25.3099 14.1632 24.0056 11.9405C22.7012 9.71753 20.7726 7.97181 18.4819 6.94893C17.1475 6.35303 15.7294 6.02003 14.2971 5.95712V4.48885ZM13.2971 4.48884V5.95711C13.0372 5.96852 12.7774 5.98885 12.518 6.01813C12.0522 6.07071 11.6487 5.78263 11.568 5.39383C11.4845 4.99209 11.7389 4.64304 12.0844 4.59573C12.4876 4.54049 12.8923 4.5049 13.2971 4.48884Z" fill="#333333" stroke="#333333"/>
</svg>
